<svg xmlns="http://www.w3.org/2000/svg" version="1.1" xmlns:xlink="http://www.w3.org/1999/xlink" xmlns:svgjs="http://svgjs.dev/svgjs" width="44" height="50"><svg width="44" height="50" viewBox="0 0 44 50" fill="none" xmlns="http://www.w3.org/2000/svg">
<path d="M18.0411 1C18.4598 2.36576 18.8944 4.04953 18.9608 5.32886C19.0937 7.8912 16.1184 13.5088 20.2948 22.3638C24.4712 31.2188 28.259 36.9665 28.6573 42.0773C28.7919 43.8055 28.3622 46.2818 27.8876 49.0846" stroke="#A8EA06" stroke-width="1.5" stroke-miterlimit="10" stroke-linecap="round" stroke-linejoin="round"></path>
<path d="M20.945 17.9204C21.0759 19.1357 20.1969 20.2271 18.9816 20.358C17.7663 20.4888 16.6749 19.6098 16.5436 18.3945C16.4127 17.1792 17.2917 16.0878 18.5071 15.9569C19.7224 15.8261 20.8142 16.705 20.945 17.9204Z" fill="#2A2D36"></path>
<path d="M23.668 24.7883C23.7989 26.0037 22.9199 27.0951 21.7046 27.2259C20.4893 27.3568 19.3979 26.4778 19.267 25.2625C19.1361 24.0472 20.0151 22.9558 21.2304 22.8245C22.4458 22.694 23.5372 23.573 23.668 24.7883Z" fill="#2A2D36"></path>
<path d="M26.696 30.9595C26.8138 32.0538 26.0225 33.0363 24.9283 33.1541C23.834 33.2719 22.8515 32.4806 22.7337 31.3864C22.6158 30.2921 23.4072 29.3096 24.5014 29.1918C25.5957 29.0739 26.5782 29.8653 26.696 30.9595Z" fill="#2A2D36"></path>
<path d="M29.05 36.8613C29.1511 37.799 28.4727 38.6413 27.535 38.7424C26.5973 38.8435 25.755 38.1651 25.6539 37.2274C25.5528 36.2893 26.2312 35.4474 27.1689 35.3463C28.107 35.2452 28.9493 35.9236 29.05 36.8613Z" fill="#2A2D36"></path>
<path d="M30.0741 41.937C30.1585 42.7186 29.5931 43.4206 28.8115 43.5046C28.03 43.589 27.3279 43.0235 27.2439 42.242C27.1595 41.4604 27.725 40.7584 28.5065 40.6744C29.2877 40.59 29.9897 41.1555 30.0741 41.937Z" fill="#2A2D36"></path>
<path d="M29.4952 46.303C29.5625 46.9284 29.1103 47.4898 28.4849 47.557C27.8595 47.6243 27.2981 47.1722 27.2309 46.5468C27.1636 45.9214 27.6157 45.36 28.2411 45.2927C28.8661 45.2255 29.4279 45.6776 29.4952 46.303Z" fill="#2A2D36"></path>
<path d="M19.6418 10.5457C19.7429 11.4834 19.0645 12.3257 18.1268 12.4268C17.1887 12.5279 16.3468 11.8495 16.2457 10.9118C16.1446 9.9737 16.823 9.13181 17.7607 9.0307C18.6988 8.9296 19.5411 9.60799 19.6418 10.5457Z" fill="#2A2D36"></path>
<path d="M20.1228 4.38339C20.2072 5.16494 19.6418 5.86698 18.8602 5.95096C18.0787 6.03536 17.3766 5.46988 17.2926 4.68834C17.2083 3.9068 17.7737 3.20475 18.5553 3.12077C19.3368 3.03638 20.0388 3.60185 20.1228 4.38339Z" fill="#2A2D36"></path>
<path d="M22.4886 42.5575C22.2982 40.1101 20.462 36.5066 18.1377 31.9445C17.0941 29.8954 15.9105 27.5724 14.6993 25.0036C10.6892 16.5028 11.9131 10.0703 12.5703 6.6151C12.618 6.36356 12.6751 6.06227 12.7187 5.81195C5.20783 9.31279 0 16.9256 0 25.7586C0 37.8544 9.76256 47.6671 21.8379 47.7547C22.1641 45.8251 22.5596 43.4683 22.4886 42.5575Z" fill="#2A2D36"></path>
<path d="M25.044 3.9729C25.0876 4.32433 25.1227 4.67168 25.1402 5.00803C25.2116 6.38194 24.9763 7.61847 24.7272 8.92716C24.2245 11.5718 23.5983 14.8627 25.8916 19.7248C27.0229 22.1229 28.1115 24.26 29.1645 26.327C32.1142 32.1166 34.4441 36.6901 34.827 41.5966C34.8775 42.2473 34.8795 42.9192 34.849 43.6114C40.3899 39.6165 44 33.1114 44 25.7587C44 14.6418 35.7528 5.45608 25.044 3.9729Z" fill="#A8EA06"></path>
</svg><style>@media (prefers-color-scheme: light) { :root { filter: none; } }
@media (prefers-color-scheme: dark) { :root { filter: none; } }
</style></svg>