<svg width="237" height="50" viewBox="0 0 237 50" fill="none" xmlns="http://www.w3.org/2000/svg">
<path d="M18.0411 1C18.4598 2.36576 18.8944 4.04953 18.9608 5.32886C19.0937 7.8912 16.1184 13.5088 20.2948 22.3638C24.4712 31.2188 28.259 36.9665 28.6573 42.0773C28.7919 43.8055 28.3622 46.2818 27.8876 49.0846" stroke="#A8EA06" stroke-width="1.5" stroke-miterlimit="10" stroke-linecap="round" stroke-linejoin="round"/>
<path d="M20.945 17.9204C21.0759 19.1357 20.1969 20.2271 18.9816 20.358C17.7663 20.4888 16.6749 19.6098 16.5436 18.3945C16.4127 17.1792 17.2917 16.0878 18.5071 15.9569C19.7224 15.8261 20.8142 16.705 20.945 17.9204Z" fill="#2A2D36"/>
<path d="M23.668 24.7883C23.7989 26.0037 22.9199 27.0951 21.7046 27.2259C20.4893 27.3568 19.3979 26.4778 19.267 25.2625C19.1361 24.0472 20.0151 22.9558 21.2304 22.8245C22.4458 22.694 23.5372 23.573 23.668 24.7883Z" fill="#2A2D36"/>
<path d="M26.696 30.9595C26.8138 32.0538 26.0225 33.0363 24.9283 33.1541C23.834 33.2719 22.8515 32.4806 22.7337 31.3864C22.6158 30.2921 23.4072 29.3096 24.5014 29.1918C25.5957 29.0739 26.5782 29.8653 26.696 30.9595Z" fill="#2A2D36"/>
<path d="M29.05 36.8613C29.1511 37.799 28.4727 38.6413 27.535 38.7424C26.5973 38.8435 25.755 38.1651 25.6539 37.2274C25.5528 36.2893 26.2312 35.4474 27.1689 35.3463C28.107 35.2452 28.9493 35.9236 29.05 36.8613Z" fill="#2A2D36"/>
<path d="M30.0741 41.937C30.1585 42.7186 29.5931 43.4206 28.8115 43.5046C28.03 43.589 27.3279 43.0235 27.2439 42.242C27.1595 41.4604 27.725 40.7584 28.5065 40.6744C29.2877 40.59 29.9897 41.1555 30.0741 41.937Z" fill="#2A2D36"/>
<path d="M29.4952 46.303C29.5625 46.9284 29.1103 47.4898 28.4849 47.557C27.8595 47.6243 27.2981 47.1722 27.2309 46.5468C27.1636 45.9214 27.6157 45.36 28.2411 45.2927C28.8661 45.2255 29.4279 45.6776 29.4952 46.303Z" fill="#2A2D36"/>
<path d="M19.6418 10.5457C19.7429 11.4834 19.0645 12.3257 18.1268 12.4268C17.1887 12.5279 16.3468 11.8495 16.2457 10.9118C16.1446 9.9737 16.823 9.13181 17.7607 9.0307C18.6988 8.9296 19.5411 9.60799 19.6418 10.5457Z" fill="#2A2D36"/>
<path d="M20.1228 4.38339C20.2072 5.16494 19.6418 5.86698 18.8602 5.95096C18.0787 6.03536 17.3766 5.46988 17.2926 4.68834C17.2083 3.9068 17.7737 3.20475 18.5553 3.12077C19.3368 3.03638 20.0388 3.60185 20.1228 4.38339Z" fill="#2A2D36"/>
<path d="M22.4886 42.5575C22.2982 40.1101 20.462 36.5066 18.1377 31.9445C17.0941 29.8954 15.9105 27.5724 14.6993 25.0036C10.6892 16.5028 11.9131 10.0703 12.5703 6.6151C12.618 6.36356 12.6751 6.06227 12.7187 5.81195C5.20783 9.31279 0 16.9256 0 25.7586C0 37.8544 9.76256 47.6671 21.8379 47.7547C22.1641 45.8251 22.5596 43.4683 22.4886 42.5575Z" fill="#2A2D36"/>
<path d="M25.044 3.9729C25.0876 4.32433 25.1227 4.67168 25.1402 5.00803C25.2116 6.38194 24.9763 7.61847 24.7272 8.92716C24.2245 11.5718 23.5983 14.8627 25.8916 19.7248C27.0229 22.1229 28.1115 24.26 29.1645 26.327C32.1142 32.1166 34.4441 36.6901 34.827 41.5966C34.8775 42.2473 34.8795 42.9192 34.849 43.6114C40.3899 39.6165 44 33.1114 44 25.7587C44 14.6418 35.7528 5.45608 25.044 3.9729Z" fill="#A8EA06"/>
<path d="M66.8203 15.9798L63.8555 33.0423H60.1406L63.0938 15.9798H66.8203ZM76.8398 15.9798L68.8008 24.6048L64.2656 28.8353L64.207 25.0033L67.2656 21.4056L72.0352 15.9798H76.8398ZM69.5508 33.0423L66.2578 25.1205L69.3281 22.9642L73.7695 33.0423H69.5508ZM81.9141 15.9798L78.9609 33.0423H75.2461L78.2109 15.9798H81.9141ZM98.543 15.9798L95.5781 33.0423H91.9688L87.5742 21.8744L85.6289 33.0423H81.9141L84.8672 15.9798H88.5L92.8945 27.1595L94.8281 15.9798H98.543ZM110.109 30.0892L109.594 33.0423H100.758L101.273 30.0892H110.109ZM105 15.9798L102.035 33.0423H98.3203L101.273 15.9798H105ZM110.215 22.847L109.723 25.7064H102.023L102.527 22.847H110.215ZM112.559 15.9798L112.043 18.9447H103.195L103.723 15.9798H112.559ZM120.762 28.4603C120.832 28.0697 120.801 27.7376 120.668 27.4642C120.543 27.1908 120.355 26.9603 120.105 26.7728C119.855 26.5853 119.57 26.4251 119.25 26.2923C118.93 26.1595 118.621 26.0345 118.324 25.9173C117.715 25.683 117.113 25.4134 116.52 25.1087C115.934 24.804 115.402 24.4447 114.926 24.0306C114.449 23.6165 114.074 23.1322 113.801 22.5775C113.535 22.015 113.426 21.3587 113.473 20.6087C113.527 19.7572 113.766 19.0228 114.188 18.4056C114.617 17.7806 115.168 17.2689 115.84 16.8705C116.512 16.472 117.234 16.183 118.008 16.0033C118.789 15.8158 119.559 15.7298 120.316 15.7455C121.379 15.7611 122.328 15.9798 123.164 16.4017C124.008 16.8236 124.668 17.429 125.145 18.2181C125.629 18.9994 125.859 19.9369 125.836 21.0306H122.145C122.168 20.554 122.105 20.14 121.957 19.7884C121.816 19.4369 121.586 19.1634 121.266 18.9681C120.945 18.7728 120.539 18.6712 120.047 18.6634C119.625 18.6478 119.207 18.7103 118.793 18.8509C118.379 18.9915 118.023 19.2103 117.727 19.5072C117.43 19.7962 117.238 20.1712 117.152 20.6322C117.098 20.9759 117.148 21.2767 117.305 21.5345C117.469 21.7845 117.691 21.9994 117.973 22.179C118.262 22.3509 118.562 22.4994 118.875 22.6244C119.195 22.7494 119.48 22.8548 119.73 22.9408C120.363 23.183 120.973 23.4642 121.559 23.7845C122.152 24.097 122.676 24.472 123.129 24.9095C123.59 25.3392 123.941 25.8431 124.184 26.4212C124.426 26.9994 124.523 27.6673 124.477 28.4251C124.414 29.3001 124.18 30.0462 123.773 30.6634C123.367 31.2806 122.848 31.7845 122.215 32.1751C121.582 32.5658 120.883 32.8509 120.117 33.0306C119.359 33.2103 118.59 33.2962 117.809 33.2884C116.949 33.2728 116.141 33.14 115.383 32.89C114.633 32.64 113.977 32.2728 113.414 31.7884C112.852 31.304 112.414 30.7142 112.102 30.0189C111.797 29.3158 111.656 28.5072 111.68 27.5931L115.406 27.6048C115.375 28.058 115.406 28.4603 115.5 28.8119C115.602 29.1556 115.758 29.4447 115.969 29.679C116.188 29.9056 116.465 30.0775 116.801 30.1947C117.145 30.3119 117.551 30.3705 118.02 30.3705C118.434 30.3783 118.836 30.3158 119.227 30.183C119.625 30.0501 119.961 29.8431 120.234 29.5619C120.516 29.2806 120.691 28.9134 120.762 28.4603ZM132.773 15.9798L129.82 33.0423H126.105L129.07 15.9798H132.773ZM148.113 24.0775L148.02 24.8275C147.863 25.9369 147.566 27.0033 147.129 28.0267C146.699 29.0423 146.129 29.9486 145.418 30.7455C144.715 31.5423 143.879 32.1712 142.91 32.6322C141.949 33.0853 140.863 33.3001 139.652 33.2767C138.488 33.2533 137.5 33.0033 136.688 32.5267C135.875 32.0501 135.227 31.4134 134.742 30.6165C134.266 29.8197 133.945 28.929 133.781 27.9447C133.617 26.9525 133.598 25.9369 133.723 24.8978L133.816 24.1361C133.973 23.0423 134.27 21.9876 134.707 20.972C135.152 19.9564 135.727 19.0501 136.43 18.2533C137.141 17.4564 137.98 16.8353 138.949 16.39C139.918 15.9369 141.004 15.722 142.207 15.7455C143.363 15.7611 144.344 16.0072 145.148 16.4837C145.961 16.9603 146.605 17.597 147.082 18.3939C147.559 19.1908 147.879 20.0814 148.043 21.0658C148.215 22.0501 148.238 23.054 148.113 24.0775ZM144.246 24.8978L144.352 24.1009C144.414 23.6087 144.449 23.0619 144.457 22.4603C144.465 21.8587 144.402 21.2806 144.27 20.7259C144.137 20.1712 143.891 19.7103 143.531 19.3431C143.18 18.9759 142.664 18.7767 141.984 18.7455C141.25 18.7142 140.621 18.8626 140.098 19.1908C139.582 19.5111 139.156 19.9447 138.82 20.4915C138.484 21.0306 138.219 21.6205 138.023 22.2611C137.828 22.9017 137.688 23.5189 137.602 24.1126L137.496 24.9095C137.441 25.3939 137.406 25.9408 137.391 26.5501C137.383 27.1517 137.441 27.7337 137.566 28.2962C137.699 28.8587 137.945 29.3275 138.305 29.7025C138.664 30.0697 139.184 30.265 139.863 30.2884C140.59 30.3197 141.211 30.1712 141.727 29.8431C142.25 29.5072 142.684 29.0697 143.027 28.5306C143.371 27.9837 143.641 27.39 143.836 26.7494C144.031 26.1087 144.168 25.4915 144.246 24.8978ZM156.527 26.0931H151.711L151.91 24.8626H156.562C157.375 24.8548 158.129 24.7103 158.824 24.429C159.52 24.14 160.098 23.7181 160.559 23.1634C161.027 22.6009 161.328 21.8939 161.461 21.0423C161.586 20.2533 161.52 19.5775 161.262 19.015C161.012 18.4525 160.609 18.0189 160.055 17.7142C159.5 17.4095 158.836 17.2455 158.062 17.222H153.75L151.008 33.0423H149.59L152.543 15.9798H158.086C159.102 16.0033 159.992 16.2142 160.758 16.6126C161.531 17.0033 162.109 17.5736 162.492 18.3236C162.883 19.0658 163.012 19.9642 162.879 21.0189C162.738 22.1517 162.371 23.0931 161.777 23.8431C161.184 24.5931 160.43 25.1556 159.516 25.5306C158.609 25.8978 157.613 26.0853 156.527 26.0931ZM170.531 17.0697L162.07 33.0423H160.547L169.746 15.9915H170.812L170.531 17.0697ZM172.992 33.0423L170.004 16.9408L170.098 15.9798H171.094L174.41 33.0423H172.992ZM172.992 27.0189L172.781 28.2611H163.98L164.18 27.0189H172.992ZM183.809 26.0931H178.992L179.191 24.8626H183.844C184.656 24.8548 185.41 24.7103 186.105 24.429C186.801 24.14 187.379 23.7181 187.84 23.1634C188.309 22.6009 188.609 21.8939 188.742 21.0423C188.867 20.2533 188.801 19.5775 188.543 19.015C188.293 18.4525 187.891 18.0189 187.336 17.7142C186.781 17.4095 186.117 17.2455 185.344 17.222H181.031L178.289 33.0423H176.871L179.824 15.9798H185.367C186.383 16.0033 187.273 16.2142 188.039 16.6126C188.812 17.0033 189.391 17.5736 189.773 18.3236C190.164 19.0658 190.293 19.9642 190.16 21.0189C190.02 22.1517 189.652 23.0931 189.059 23.8431C188.465 24.5931 187.711 25.1556 186.797 25.5306C185.891 25.8978 184.895 26.0853 183.809 26.0931ZM203.988 23.6322L203.777 24.8626H193.711L193.91 23.6322H203.988ZM195.586 15.9798L192.633 33.0423H191.215L194.168 15.9798H195.586ZM206.438 15.9798L203.484 33.0423H202.078L205.031 15.9798H206.438ZM221.555 23.597L221.262 25.4134C221.098 26.4134 220.812 27.3861 220.406 28.3314C220.008 29.2689 219.484 30.1126 218.836 30.8626C218.195 31.6126 217.434 32.2064 216.551 32.6439C215.676 33.0736 214.68 33.2845 213.562 33.2767C212.477 33.2689 211.566 33.0345 210.832 32.5736C210.098 32.1126 209.527 31.5033 209.121 30.7455C208.715 29.9798 208.449 29.1361 208.324 28.2142C208.207 27.2923 208.219 26.3626 208.359 25.4251L208.652 23.6087C208.809 22.6087 209.09 21.64 209.496 20.7025C209.91 19.7572 210.438 18.9095 211.078 18.1595C211.727 17.4095 212.488 16.8197 213.363 16.39C214.246 15.9525 215.242 15.7376 216.352 15.7455C217.445 15.7533 218.355 15.9876 219.082 16.4486C219.816 16.9095 220.387 17.5189 220.793 18.2767C221.199 19.0345 221.461 19.8783 221.578 20.808C221.695 21.7298 221.688 22.6595 221.555 23.597ZM219.855 25.4251L220.16 23.5736C220.27 22.8314 220.297 22.0814 220.242 21.3236C220.195 20.558 220.031 19.8509 219.75 19.2025C219.477 18.554 219.059 18.0306 218.496 17.6322C217.941 17.2337 217.207 17.0267 216.293 17.0111C215.387 17.0033 214.574 17.1869 213.855 17.5619C213.145 17.929 212.531 18.433 212.016 19.0736C211.5 19.7064 211.078 20.4134 210.75 21.1947C210.43 21.9759 210.203 22.7689 210.07 23.5736L209.766 25.4251C209.656 26.1595 209.625 26.9095 209.672 27.6751C209.727 28.4408 209.891 29.1478 210.164 29.7962C210.445 30.4447 210.863 30.972 211.418 31.3783C211.98 31.7845 212.711 31.9955 213.609 32.0111C214.539 32.0267 215.359 31.847 216.07 31.472C216.789 31.097 217.406 30.5931 217.922 29.9603C218.438 29.3275 218.855 28.6165 219.176 27.8275C219.496 27.0384 219.723 26.2376 219.855 25.4251ZM233.555 28.8001C233.656 28.2064 233.609 27.7025 233.414 27.2884C233.219 26.8744 232.926 26.5267 232.535 26.2455C232.145 25.9642 231.707 25.7298 231.223 25.5423C230.746 25.347 230.273 25.1751 229.805 25.0267C229.219 24.8314 228.633 24.6087 228.047 24.3587C227.461 24.1009 226.934 23.7884 226.465 23.4212C225.996 23.054 225.633 22.6087 225.375 22.0853C225.125 21.554 225.047 20.9251 225.141 20.1986C225.227 19.4408 225.465 18.7806 225.855 18.2181C226.254 17.6556 226.746 17.1908 227.332 16.8236C227.926 16.4564 228.57 16.183 229.266 16.0033C229.961 15.8236 230.652 15.7376 231.34 15.7455C232.34 15.7533 233.23 15.9681 234.012 16.39C234.793 16.8119 235.387 17.4056 235.793 18.1712C236.207 18.929 236.367 19.8197 236.273 20.8431H234.867C234.961 20.054 234.867 19.3744 234.586 18.804C234.312 18.2259 233.891 17.7806 233.32 17.4681C232.75 17.1556 232.078 16.9955 231.305 16.9876C230.617 16.9798 229.934 17.0892 229.254 17.3158C228.574 17.5345 227.984 17.8822 227.484 18.3587C226.992 18.8275 226.684 19.433 226.559 20.1751C226.465 20.7298 226.52 21.2064 226.723 21.6048C226.934 21.9955 227.234 22.3275 227.625 22.6009C228.016 22.8665 228.445 23.0892 228.914 23.2689C229.391 23.4486 229.844 23.6048 230.273 23.7376C230.891 23.933 231.496 24.1673 232.09 24.4408C232.691 24.7064 233.227 25.0345 233.695 25.4251C234.164 25.808 234.52 26.2767 234.762 26.8314C235.004 27.3783 235.078 28.0267 234.984 28.7767C234.891 29.558 234.641 30.2337 234.234 30.804C233.836 31.3744 233.332 31.8431 232.723 32.2103C232.121 32.5697 231.465 32.8392 230.754 33.0189C230.051 33.1986 229.344 33.2845 228.633 33.2767C227.859 33.2767 227.129 33.1673 226.441 32.9486C225.754 32.722 225.152 32.3939 224.637 31.9642C224.121 31.5267 223.734 30.9915 223.477 30.3587C223.219 29.7259 223.129 28.9915 223.207 28.1556L224.613 28.1673C224.535 28.8158 224.586 29.3822 224.766 29.8665C224.953 30.3509 225.238 30.7533 225.621 31.0736C226.004 31.3939 226.457 31.6361 226.98 31.8001C227.504 31.9564 228.066 32.0384 228.668 32.0462C229.379 32.054 230.082 31.9447 230.777 31.7181C231.48 31.4915 232.086 31.14 232.594 30.6634C233.102 30.1869 233.422 29.5658 233.555 28.8001Z" fill="#2A2D36"/>
</svg>
